#!OML:ASF X:\für Bonn\!DataBase\2005_08_11_Bastian_Final\c3d\Bastian.ASF
:FULLY-SPECIFIED
:DEGREES
32
root -2.09495 17.288 2.45747 151.291 -11.9887 -171.83
lowerback 27.9242 -3.68813 3.01755
upperback 11.0928 -6.97092 4.08682
thorax -2.61687 -4.8395 4.84499
lowerneck -5.90347 -4.88719 -6.25326
upperneck -4.24696 -5.8096 7.55463
head 0.120724 -2.68801 3.40312
rclavicle -2.61402e-014 -1.27222e-014
rhumerus -55.7918 31.4714 -108.023
rradius 34.4634
rwrist -35.7627
rhand -35.7716 0.933936
rfingers 7.12502
rthumb -8.88937 -28.8588
lclavicle -2.61402e-014 -1.27222e-014
lhumerus 23.8775 -23.9648 79.9828
lradius 89.0027
lwrist -7.45294
lhand -56.3976 -6.83887
lfingers 7.12502
lthumb -28.7161 20.9734
rfemur -50.614 -6.17901 25.6199
rtibia 111.493
rfoot 10.6836 -3.92951
rtoes -2.85172
lfemur 19.2395 -4.36004 -14.9381
ltibia 24.496
lfoot -9.42451 -4.38649
ltoes -4.18389
33
root -2.09931 17.2808 2.46814 150.657 -11.9456 -171.542
lowerback 28.8313 -3.82337 2.81181
upperback 11.2646 -7.32468 4.26719
thorax -2.76249 -5.10175 5.35794
lowerneck -6.09203 -4.67811 -6.42397
upperneck -4.18556 -5.5124 7.5293
head 0.15605 -2.53397 3.43225
rclavicle 8.34896e-014 -8.5875e-014
rhumerus -55.98 32.1481 -108.127
rradius 34.9139
rwrist -36.141
rhand -35.6953 1.10023
rfingers 7.12502
rthumb -8.81577 -28.6956
lclavicle 8.34896e-014 -8.5875e-014
lhumerus 25.3409 -23.2547 79.6615
lradius 89.81
lwrist -7.80654
lhand -56.7247 -7.36495
lfingers 7.12502
lthumb -29.0286 20.3939
rfemur -52.9273 -6.01155 26.2903
rtibia 113.655
rfoot 10.2596 -3.66638
rtoes -3.87098
lfemur 19.8969 -4.65717 -14.8098
ltibia 24.3626
lfoot -9.39012 -4.20514
ltoes -4.02364
34
root -2.10422 17.2699 2.47649 150.031 -11.9412 -171.255
lowerback 29.6837 -3.97008 2.77552
upperback 11.4281 -7.64228 4.37701
thorax -2.91233 -5.33295 5.68896
lowerneck -6.28332 -4.55199 -6.60879
upperneck -4.08012 -5.32746 7.56383
head 0.216628 -2.43604 3.48087
rclavicle 6.50026e-014 -3.18055e-015
rhumerus -56.0262 32.5712 -108.179
rradius 35.247
rwrist -36.4232
rhand -35.6241 1.23995
rfingers 7.12502
rthumb -8.74703 -28.5588
lclavicle 6.50026e-014 -3.18055e-015
lhumerus 26.7908 -22.7526 79.3711
lradius 90.5698
lwrist -8.1917
lhand -57.001 -7.95586
lfingers 7.12502
lthumb -29.2925 19.7572
rfemur -55.2153 -5.95094 26.9227
rtibia 115.778
rfoot 9.77988 -3.41276
rtoes -4.70681
lfemur 20.189 -4.89384 -14.6568
ltibia 24.9779
lfoot -9.73651 -4.1711
ltoes -4.07316
35
root -2.11136 17.2581 2.48388 149.391 -11.9277 -170.963
lowerback 30.5115 -4.11043 2.88883
upperback 11.5913 -7.90895 4.45712
thorax -3.0678 -5.53198 5.89055
lowerneck -6.44267 -4.48603 -6.82167
upperneck -4.02404 -5.21823 7.62821
head 0.263198 -2.37521 3.54427
rclavicle 1.04958e-013 -1.56642e-013
rhumerus -56.0216 32.8751 -108.203
rradius 35.5951
rwrist -36.7778
rhand -35.614 1.39019
rfingers 7.12502
rthumb -8.73732 -28.409
lclavicle 1.04958e-013 -1.56642e-013
lhumerus 28.2356 -22.4394 79.1306
lradius 91.3014
lwrist -8.6185
lhand -57.2577 -8.44625
lfingers 7.12502
lthumb -29.5375 19.2238
rfemur -57.4731 -5.93018 27.5615
rtibia 117.775
rfoot 9.35946 -3.14894
rtoes -5.80562
lfemur 20.4554 -5.13224 -14.5046
ltibia 25.6972
lfoot -10.1455 -4.15334
ltoes -3.90906
36
root -2.11986 17.1582 2.47735 148.753 -11.9114 -170.653
lowerback 31.3022 -4.24118 3.02716
upperback 11.7654 -8.16183 4.54335
thorax -3.1905 -5.72675 6.07912
lowerneck -6.63177 -4.4314 -7.01863
upperneck -3.96501 -5.1216 7.69612
head 0.316391 -2.31977 3.60529
rclavicle 5.26779e-014 -5.80451e-014
rhumerus -55.9326 33.1047 -108.137
rradius 35.9237
rwrist -37.0299
rhand -35.595 1.48554
rfingers 7.12502
rthumb -8.71896 -28.3144
lclavicle 5.26779e-014 -5.80451e-014
lhumerus 29.6552 -22.1673 78.9236
lradius 92.0239
lwrist -9.1005
lhand -57.4323 -8.68411
lfingers 7.12502
lthumb -29.7041 18.9563
rfemur -60.5225 -5.94488 28.2559
rtibia 120.171
rfoot 9.24611 -2.84903
rtoes -6.6072
lfemur 20.6081 -5.27892 -14.2846
ltibia 26.6328
lfoot -10.6747 -4.23287
ltoes -4.12236
37
root -2.12825 17.137 2.47937 148.075 -11.9408 -170.382
lowerback 32.4676 -4.40034 3.17667
upperback 11.6309 -8.44175 4.81968
thorax -3.39984 -5.94977 6.09233
lowerneck -6.83012 -4.36786 -7.21213
upperneck -3.88503 -5.01353 7.76616
head 0.376924 -2.25883 3.66703
rclavicle 2.90226e-014 -7.79236e-014
rhumerus -55.8433 33.2654 -108.012
rradius 36.2569
rwrist -37.1414
rhand -35.5481 1.545
rfingers 7.12502
rthumb -8.67375 -28.2568
lclavicle 2.90226e-014 -7.79236e-014
lhumerus 30.9939 -21.8786 78.7699
lradius 92.7037
lwrist -9.65574
lhand -57.5936 -8.78329
lfingers 7.12502
lthumb -29.8581 18.8296
rfemur -62.7787 -6.1382 28.8925
rtibia 121.945
rfoot 8.88448 -2.48209
rtoes -7.54388
lfemur 20.8711 -5.43634 -14.1224
ltibia 27.4483
lfoot -11.1295 -4.33565
ltoes -4.17656
38
root -2.13703 17.1146 2.47885 147.383 -11.9534 -170.088
lowerback 33.3124 -4.5105 3.28001
upperback 11.7776 -8.67843 4.91416
thorax -3.52384 -6.14241 6.28841
lowerneck -7.01325 -4.31895 -7.2494
upperneck -3.84542 -4.93299 7.74172
head 0.415749 -2.21368 3.66535
rclavicle -4.57205e-015 -2.70347e-014
rhumerus -55.7329 33.3047 -107.847
rradius 36.5905
rwrist -37.1698
rhand -35.5226 1.62614
rfingers 7.12502
rthumb -8.64914 -28.1767
lclavicle -4.57205e-015 -2.70347e-014
lhumerus 32.2848 -21.6917 78.6334
lradius 93.4095
lwrist -10.2204
lhand -57.7072 -8.60356
lfingers 7.12502
lthumb -29.9665 18.9898
rfemur -65.0032 -6.33331 29.568
rtibia 123.591
rfoot 8.61624 -2.10454
rtoes -8.14108
lfemur 21.1649 -5.58186 -13.9201
ltibia 28.2429
lfoot -11.5845 -4.45762
ltoes -4.29665
39
root -2.14561 17.096 2.47779 146.697 -11.987 -169.799
lowerback 34.1543 -4.61157 3.35292
upperback 11.9174 -8.91267 5.01882
thorax -3.64209 -6.33619 6.51302
lowerneck -7.19434 -4.25866 -7.27479
upperneck -3.82395 -4.8359 7.71939
head 0.446742 -2.15992 3.66315
rclavicle 9.81996e-014 -1.24042e-013
rhumerus -55.6338 33.3781 -107.689
rradius 36.9462
rwrist -37.2253
rhand -35.4797 1.68125
rfingers 7.12502
rthumb -8.60776 -28.1233
lclavicle 9.81996e-014 -1.24042e-013
lhumerus 33.5123 -21.5098 78.5034
lradius 94.1112
lwrist -10.7454
lhand -57.7981 -8.2557
lfingers 7.12502
lthumb -30.0533 19.3219
rfemur -67.2176 -6.50384 30.2093
rtibia 125.051
rfoot 8.55216 -1.72288
rtoes -8.43728
lfemur 21.7096 -5.72066 -13.7209
ltibia 28.4646
lfoot -11.7263 -4.56054
ltoes -4.38034
40
root -2.15494 17.0833 2.47637 146.065 -12.0435 -169.507
lowerback 34.932 -4.72272 3.43026
upperback 12.0359 -9.14981 5.13348
thorax -3.75179 -6.52753 6.74428
lowerneck -7.37646 -4.21131 -7.32292
upperneck -3.80006 -4.7546 7.70516
head 0.480935 -2.11381 3.66773
rclavicle -1.72943e-014 -1.59028e-015
rhumerus -55.5351 33.4093 -107.486
rradius 37.3004
rwrist -37.1755
rhand -35.4659 1.68455
rfingers 7.12502
rthumb -8.59436 -28.1205
lclavicle -1.72943e-014 -1.59028e-015
lhumerus 34.5779 -21.3618 78.4458
lradius 94.7991
lwrist -11.2354
lhand -57.8876 -7.91199
lfingers 7.12502
lthumb -30.1387 19.6501
rfemur -69.4111 -6.62912 30.8079
rtibia 126.367
rfoot 8.56501 -1.35225
rtoes -8.63233
lfemur 22.2274 -5.87645 -13.5357
ltibia 28.6191
lfoot -11.8377 -4.64072
ltoes -4.60162
